<mxfile host="app.diagrams.net" modified="2022-08-23T04:55:10.781Z" agent="5.0 (Windows NT 10.0; Win64; x64) AppleWebKit/537.36 (KHTML, like Gecko) Chrome/104.0.0.0 Safari/537.36" etag="FQQftpEyoqMcsSwZJCAn" version="20.2.6" type="github">
  <diagram id="-RJAa01F9moYpCf0gjcI" name="Page-1">
    <mxGraphModel dx="1294" dy="834" grid="1" gridSize="10" guides="1" tooltips="1" connect="1" arrows="1" fold="1" page="1" pageScale="1" pageWidth="850" pageHeight="1100" math="0" shadow="0">
      <root>
        <mxCell id="0" />
        <mxCell id="1" parent="0" />
        <mxCell id="q8OR-bMU872VG7XzWhov-12" value="Purchase" style="swimlane;fillColor=default;" parent="1" vertex="1">
          <mxGeometry x="130" y="240" width="230" height="170" as="geometry" />
        </mxCell>
        <mxCell id="q8OR-bMU872VG7XzWhov-17" value="Basic Details&lt;br&gt;Contact Details&lt;br&gt;Questionnaire&lt;br&gt;Plans&lt;br&gt;Ekyc&lt;br&gt;Payment&lt;br&gt;Policy Issuance" style="text;html=1;align=left;verticalAlign=middle;resizable=0;points=[];autosize=1;strokeColor=none;fillColor=none;" parent="q8OR-bMU872VG7XzWhov-12" vertex="1">
          <mxGeometry x="10" y="35" width="110" height="110" as="geometry" />
        </mxCell>
        <mxCell id="q8OR-bMU872VG7XzWhov-25" value="Store" style="shape=cylinder3;whiteSpace=wrap;html=1;boundedLbl=1;backgroundOutline=1;size=15;fillColor=none;" parent="q8OR-bMU872VG7XzWhov-12" vertex="1">
          <mxGeometry x="150" y="100" width="50" height="60" as="geometry" />
        </mxCell>
        <mxCell id="q8OR-bMU872VG7XzWhov-21" value="Policy Servicing" style="swimlane;fillColor=none;" parent="1" vertex="1">
          <mxGeometry x="130" y="570" width="230" height="170" as="geometry" />
        </mxCell>
        <mxCell id="q8OR-bMU872VG7XzWhov-22" value="Address Correction&lt;br&gt;Mobile Number Correction&lt;br&gt;Gender Correction&lt;br&gt;Nominee Correction&lt;br&gt;Email Id Correction&lt;br&gt;Insured Name change&lt;br&gt;Aadhar Update&lt;br&gt;Pan Update" style="text;html=1;align=left;verticalAlign=middle;resizable=0;points=[];autosize=1;strokeColor=none;fillColor=none;" parent="q8OR-bMU872VG7XzWhov-21" vertex="1">
          <mxGeometry x="10" y="30" width="160" height="130" as="geometry" />
        </mxCell>
        <mxCell id="q8OR-bMU872VG7XzWhov-45" value="Store" style="shape=cylinder3;whiteSpace=wrap;html=1;boundedLbl=1;backgroundOutline=1;size=15;fillColor=none;" parent="q8OR-bMU872VG7XzWhov-21" vertex="1">
          <mxGeometry x="160" y="100" width="50" height="60" as="geometry" />
        </mxCell>
        <mxCell id="q8OR-bMU872VG7XzWhov-61" style="edgeStyle=orthogonalEdgeStyle;rounded=0;orthogonalLoop=1;jettySize=auto;html=1;entryX=1;entryY=0.25;entryDx=0;entryDy=0;" parent="1" source="q8OR-bMU872VG7XzWhov-26" target="q8OR-bMU872VG7XzWhov-46" edge="1">
          <mxGeometry relative="1" as="geometry" />
        </mxCell>
        <mxCell id="q8OR-bMU872VG7XzWhov-65" style="edgeStyle=orthogonalEdgeStyle;rounded=0;orthogonalLoop=1;jettySize=auto;html=1;entryX=-0.033;entryY=0.49;entryDx=0;entryDy=0;entryPerimeter=0;" parent="1" source="q8OR-bMU872VG7XzWhov-26" target="q8OR-bMU872VG7XzWhov-62" edge="1">
          <mxGeometry relative="1" as="geometry" />
        </mxCell>
        <mxCell id="q8OR-bMU872VG7XzWhov-26" value="Profile" style="swimlane;fillColor=none;" parent="1" vertex="1">
          <mxGeometry x="130" y="430" width="230" height="120" as="geometry" />
        </mxCell>
        <mxCell id="q8OR-bMU872VG7XzWhov-27" value="Personal Details&lt;br&gt;Payments&lt;br&gt;My Policies&lt;br&gt;Quotes" style="text;html=1;align=left;verticalAlign=middle;resizable=0;points=[];autosize=1;strokeColor=none;fillColor=none;" parent="q8OR-bMU872VG7XzWhov-26" vertex="1">
          <mxGeometry x="10" y="35" width="110" height="70" as="geometry" />
        </mxCell>
        <mxCell id="q8OR-bMU872VG7XzWhov-28" value="Store" style="shape=cylinder3;whiteSpace=wrap;html=1;boundedLbl=1;backgroundOutline=1;size=15;fillColor=none;" parent="q8OR-bMU872VG7XzWhov-26" vertex="1">
          <mxGeometry x="150" y="50" width="50" height="60" as="geometry" />
        </mxCell>
        <mxCell id="q8OR-bMU872VG7XzWhov-29" value="Claims" style="swimlane;fillColor=none;" parent="1" vertex="1">
          <mxGeometry x="130" y="870" width="230" height="95" as="geometry" />
        </mxCell>
        <mxCell id="q8OR-bMU872VG7XzWhov-30" value="Claim Form&amp;nbsp;&lt;br&gt;Upload all documents&lt;br&gt;Claim Tracking&lt;br&gt;All Claims List" style="text;html=1;align=left;verticalAlign=middle;resizable=0;points=[];autosize=1;strokeColor=none;fillColor=none;" parent="q8OR-bMU872VG7XzWhov-29" vertex="1">
          <mxGeometry x="10" y="25" width="140" height="70" as="geometry" />
        </mxCell>
        <mxCell id="q8OR-bMU872VG7XzWhov-31" value="Store" style="shape=cylinder3;whiteSpace=wrap;html=1;boundedLbl=1;backgroundOutline=1;size=15;fillColor=none;" parent="q8OR-bMU872VG7XzWhov-29" vertex="1">
          <mxGeometry x="160" y="30" width="50" height="60" as="geometry" />
        </mxCell>
        <mxCell id="q8OR-bMU872VG7XzWhov-32" value="Home" style="swimlane;fillColor=none;" parent="1" vertex="1">
          <mxGeometry x="130" y="760" width="230" height="90" as="geometry" />
        </mxCell>
        <mxCell id="q8OR-bMU872VG7XzWhov-33" value="Home page" style="text;html=1;align=left;verticalAlign=middle;resizable=0;points=[];autosize=1;strokeColor=none;fillColor=none;" parent="q8OR-bMU872VG7XzWhov-32" vertex="1">
          <mxGeometry x="10" y="40" width="90" height="30" as="geometry" />
        </mxCell>
        <mxCell id="q8OR-bMU872VG7XzWhov-24" value="Store" style="shape=cylinder3;whiteSpace=wrap;html=1;boundedLbl=1;backgroundOutline=1;size=15;fillColor=none;" parent="q8OR-bMU872VG7XzWhov-32" vertex="1">
          <mxGeometry x="160" y="25" width="50" height="60" as="geometry" />
        </mxCell>
        <mxCell id="q8OR-bMU872VG7XzWhov-38" value="Root Config" style="swimlane;fillColor=none;" parent="1" vertex="1">
          <mxGeometry x="130" y="40" width="230" height="180" as="geometry" />
        </mxCell>
        <mxCell id="q8OR-bMU872VG7XzWhov-39" value="&lt;div style=&quot;&quot;&gt;&lt;span style=&quot;background-color: initial;&quot;&gt;Host all micro frontends&lt;/span&gt;&lt;/div&gt;&lt;div style=&quot;&quot;&gt;&lt;span style=&quot;background-color: initial;&quot;&gt;Contains index.js file&lt;/span&gt;&lt;br&gt;&lt;span style=&quot;background-color: initial;&quot;&gt;Good place App level settings&amp;nbsp;&lt;/span&gt;&lt;br&gt;&lt;span style=&quot;background-color: initial;&quot;&gt;can setup things like service worker,&lt;/span&gt;&lt;br&gt;&lt;span style=&quot;background-color: initial;&quot;&gt;Google Analytics,&lt;/span&gt;&lt;br&gt;&lt;span style=&quot;background-color: initial;&quot;&gt;Notifications API,&lt;/span&gt;&lt;br&gt;&lt;span style=&quot;background-color: initial;&quot;&gt;PWA setup,&lt;br&gt;&lt;/span&gt;contains shred dependency&lt;/div&gt;" style="text;html=1;align=left;verticalAlign=middle;resizable=0;points=[];autosize=1;strokeColor=none;fillColor=none;" parent="q8OR-bMU872VG7XzWhov-38" vertex="1">
          <mxGeometry x="10" y="30" width="220" height="130" as="geometry" />
        </mxCell>
        <mxCell id="q8OR-bMU872VG7XzWhov-46" value="Global shared state using&lt;br&gt;RxJs, Custome Events&lt;br&gt;Session storage&lt;br&gt;Local Storage" style="rounded=0;whiteSpace=wrap;html=1;fillColor=none;" parent="1" vertex="1">
          <mxGeometry x="10" y="445" width="80" height="125" as="geometry" />
        </mxCell>
        <mxCell id="q8OR-bMU872VG7XzWhov-53" style="edgeStyle=orthogonalEdgeStyle;rounded=0;orthogonalLoop=1;jettySize=auto;html=1;entryX=0.375;entryY=0.033;entryDx=0;entryDy=0;entryPerimeter=0;" parent="1" source="q8OR-bMU872VG7XzWhov-39" target="q8OR-bMU872VG7XzWhov-46" edge="1">
          <mxGeometry relative="1" as="geometry" />
        </mxCell>
        <mxCell id="q8OR-bMU872VG7XzWhov-54" style="edgeStyle=orthogonalEdgeStyle;rounded=0;orthogonalLoop=1;jettySize=auto;html=1;entryX=0.5;entryY=0;entryDx=0;entryDy=0;" parent="1" source="q8OR-bMU872VG7XzWhov-17" target="q8OR-bMU872VG7XzWhov-46" edge="1">
          <mxGeometry relative="1" as="geometry" />
        </mxCell>
        <mxCell id="q8OR-bMU872VG7XzWhov-57" style="edgeStyle=orthogonalEdgeStyle;rounded=0;orthogonalLoop=1;jettySize=auto;html=1;entryX=0.5;entryY=1;entryDx=0;entryDy=0;" parent="1" source="q8OR-bMU872VG7XzWhov-22" target="q8OR-bMU872VG7XzWhov-46" edge="1">
          <mxGeometry relative="1" as="geometry" />
        </mxCell>
        <mxCell id="q8OR-bMU872VG7XzWhov-58" style="edgeStyle=orthogonalEdgeStyle;rounded=0;orthogonalLoop=1;jettySize=auto;html=1;entryX=0.333;entryY=1.017;entryDx=0;entryDy=0;entryPerimeter=0;" parent="1" source="q8OR-bMU872VG7XzWhov-33" target="q8OR-bMU872VG7XzWhov-46" edge="1">
          <mxGeometry relative="1" as="geometry" />
        </mxCell>
        <mxCell id="q8OR-bMU872VG7XzWhov-60" style="edgeStyle=orthogonalEdgeStyle;rounded=0;orthogonalLoop=1;jettySize=auto;html=1;entryX=0.142;entryY=1;entryDx=0;entryDy=0;entryPerimeter=0;" parent="1" source="q8OR-bMU872VG7XzWhov-30" target="q8OR-bMU872VG7XzWhov-46" edge="1">
          <mxGeometry relative="1" as="geometry" />
        </mxCell>
        <mxCell id="dR5dwKQXDwu69-NNpGxU-3" style="edgeStyle=orthogonalEdgeStyle;rounded=0;orthogonalLoop=1;jettySize=auto;html=1;entryX=0;entryY=0.5;entryDx=0;entryDy=0;" edge="1" parent="1" source="q8OR-bMU872VG7XzWhov-62" target="dR5dwKQXDwu69-NNpGxU-1">
          <mxGeometry relative="1" as="geometry" />
        </mxCell>
        <mxCell id="q8OR-bMU872VG7XzWhov-62" value="APi&lt;br&gt;GateWay" style="rounded=0;whiteSpace=wrap;html=1;fillColor=none;" parent="1" vertex="1">
          <mxGeometry x="440" y="40" width="30" height="920" as="geometry" />
        </mxCell>
        <mxCell id="q8OR-bMU872VG7XzWhov-63" value="Micro Front Ends can share components at run time with module federation." style="text;html=1;align=left;verticalAlign=middle;resizable=0;points=[];autosize=1;strokeColor=none;fillColor=none;" parent="1" vertex="1">
          <mxGeometry x="20" y="1005" width="430" height="30" as="geometry" />
        </mxCell>
        <mxCell id="dR5dwKQXDwu69-NNpGxU-1" value="" style="rounded=0;whiteSpace=wrap;html=1;" vertex="1" parent="1">
          <mxGeometry x="520" y="40" width="290" height="920" as="geometry" />
        </mxCell>
        <mxCell id="dR5dwKQXDwu69-NNpGxU-2" value="&lt;p style=&quot;line-height: 2.1;&quot;&gt;&lt;/p&gt;&lt;div style=&quot;&quot;&gt;&lt;span style=&quot;background-color: initial;&quot;&gt;Possible End Points&lt;/span&gt;&lt;/div&gt;&lt;div style=&quot;&quot;&gt;&lt;span style=&quot;background-color: initial;&quot;&gt;&lt;br&gt;&lt;/span&gt;&lt;/div&gt;&lt;div style=&quot;&quot;&gt;&lt;span style=&quot;background-color: initial;&quot;&gt;/PostBasicDetails&lt;/span&gt;&lt;/div&gt;&lt;div style=&quot;&quot;&gt;&lt;span style=&quot;background-color: initial;&quot;&gt;/PostContactInfo&lt;/span&gt;&lt;/div&gt;&lt;div style=&quot;&quot;&gt;&lt;span style=&quot;background-color: initial;&quot;&gt;/FetchQuestions&lt;/span&gt;&lt;/div&gt;&lt;div style=&quot;&quot;&gt;&lt;span style=&quot;background-color: initial;&quot;&gt;/PostEkycDetail&lt;/span&gt;&lt;/div&gt;&lt;div style=&quot;&quot;&gt;&lt;span style=&quot;background-color: initial;&quot;&gt;/UploadEkycFile&lt;/span&gt;&lt;/div&gt;&lt;div style=&quot;&quot;&gt;&lt;span style=&quot;background-color: initial;&quot;&gt;/PostAnswer&lt;/span&gt;&lt;/div&gt;&lt;div style=&quot;&quot;&gt;&lt;span style=&quot;background-color: initial;&quot;&gt;/GetAadharOTP&lt;/span&gt;&lt;/div&gt;&lt;div style=&quot;&quot;&gt;&lt;span style=&quot;background-color: initial;&quot;&gt;/VerifyAadhar&lt;/span&gt;&lt;/div&gt;&lt;div style=&quot;&quot;&gt;&lt;span style=&quot;background-color: initial;&quot;&gt;/GetMobileOTP&lt;/span&gt;&lt;/div&gt;&lt;div style=&quot;&quot;&gt;&lt;span style=&quot;background-color: initial;&quot;&gt;/VerifyMobile&lt;/span&gt;&lt;/div&gt;&lt;div style=&quot;&quot;&gt;&lt;span style=&quot;background-color: initial;&quot;&gt;/GetEmailOTP&lt;/span&gt;&lt;/div&gt;&lt;div style=&quot;&quot;&gt;&lt;span style=&quot;background-color: initial;&quot;&gt;/VerifyMobile&lt;/span&gt;&lt;/div&gt;&lt;div style=&quot;&quot;&gt;&lt;span style=&quot;background-color: initial;&quot;&gt;/FetchPlans&lt;/span&gt;&lt;/div&gt;&lt;div style=&quot;&quot;&gt;&lt;span style=&quot;background-color: initial;&quot;&gt;/MakePaymet&lt;/span&gt;&lt;/div&gt;&lt;div style=&quot;&quot;&gt;&lt;span style=&quot;background-color: initial;&quot;&gt;/GetPolicyDocument&lt;/span&gt;&lt;/div&gt;&lt;div style=&quot;&quot;&gt;&lt;span style=&quot;background-color: initial;&quot;&gt;/GetQuoteDocument&lt;/span&gt;&lt;/div&gt;&lt;div style=&quot;&quot;&gt;&lt;span style=&quot;background-color: initial;&quot;&gt;/GetProposalDocument&lt;/span&gt;&lt;/div&gt;&lt;div style=&quot;&quot;&gt;&lt;span style=&quot;background-color: initial;&quot;&gt;&lt;br&gt;&lt;/span&gt;&lt;/div&gt;&lt;div style=&quot;&quot;&gt;&lt;span style=&quot;background-color: initial;&quot;&gt;&lt;br&gt;&lt;/span&gt;&lt;/div&gt;&lt;div style=&quot;&quot;&gt;&lt;span style=&quot;background-color: initial;&quot;&gt;/UpdateAddress&lt;/span&gt;&lt;/div&gt;&lt;div style=&quot;&quot;&gt;&lt;span style=&quot;background-color: initial;&quot;&gt;/UpdateMobleNumber&lt;/span&gt;&lt;/div&gt;&lt;div style=&quot;&quot;&gt;&lt;span style=&quot;background-color: initial;&quot;&gt;/UpdateGender&lt;/span&gt;&lt;/div&gt;&lt;div style=&quot;&quot;&gt;&lt;span style=&quot;background-color: initial;&quot;&gt;/UpdateAadhar&lt;/span&gt;&lt;/div&gt;&lt;div style=&quot;&quot;&gt;&lt;span style=&quot;background-color: initial;&quot;&gt;UpdatePan&lt;/span&gt;&lt;/div&gt;&lt;div style=&quot;&quot;&gt;&lt;span style=&quot;background-color: initial;&quot;&gt;/UpdateNominee&lt;/span&gt;&lt;/div&gt;&lt;div style=&quot;&quot;&gt;/UpdateEmail&lt;/div&gt;&lt;div style=&quot;&quot;&gt;&lt;span style=&quot;background-color: initial;&quot;&gt;&lt;br&gt;&lt;/span&gt;&lt;/div&gt;&lt;div style=&quot;&quot;&gt;&lt;span style=&quot;background-color: initial;&quot;&gt;/FetchPolicyDetail&lt;/span&gt;&lt;/div&gt;&lt;div style=&quot;&quot;&gt;&lt;span style=&quot;background-color: initial;&quot;&gt;/PostClaimsDetails&lt;/span&gt;&lt;/div&gt;&lt;div style=&quot;&quot;&gt;&lt;span style=&quot;background-color: initial;&quot;&gt;/UploadClaimFiles&lt;/span&gt;&lt;/div&gt;&lt;div style=&quot;&quot;&gt;&lt;span style=&quot;background-color: initial;&quot;&gt;/ClaimStatus&lt;/span&gt;&lt;/div&gt;&lt;div style=&quot;&quot;&gt;&lt;span style=&quot;background-color: initial;&quot;&gt;/FetchAllClaimList&lt;/span&gt;&lt;/div&gt;&lt;div style=&quot;&quot;&gt;&lt;span style=&quot;background-color: initial;&quot;&gt;&lt;br&gt;&lt;/span&gt;&lt;/div&gt;&lt;div style=&quot;&quot;&gt;/login&lt;/div&gt;&lt;div style=&quot;&quot;&gt;/logout&lt;/div&gt;&lt;div style=&quot;&quot;&gt;/FetchUserInfo&lt;/div&gt;&lt;div style=&quot;&quot;&gt;/UpdateUserInfo&lt;/div&gt;&lt;div style=&quot;&quot;&gt;/FetchAllPolicies&lt;/div&gt;&lt;div style=&quot;&quot;&gt;/FetchAllQuotes&lt;/div&gt;&lt;p&gt;&lt;/p&gt;" style="text;html=1;strokeColor=none;fillColor=none;align=left;verticalAlign=middle;whiteSpace=wrap;rounded=0;" vertex="1" parent="1">
          <mxGeometry x="541" y="50" width="219" height="760" as="geometry" />
        </mxCell>
      </root>
    </mxGraphModel>
  </diagram>
</mxfile>
